<svg
                    className="h-full w-2/3"
                    xmlns="http://www.w3.org/2000/svg"
                    data-name="Capa 1"
                    viewBox="0 0 224.72 285.53"
                >
                    <path
                        fill="#efe5e1"
                        d="M211.5 116.34a29.4 29.4 0 000-8c-.07-.57-.05-1.4-.81-1.44s-.74.78-.82 1.28a56.37 56.37 0 01-2.75 9.61 3 3 0 01-1.88 2 54.1 54.1 0 00-10.5 6.07 3.08 3.08 0 01-1.3.61c1-1.8 2.07-3.58 3.07-5.39a136.65 136.65 0 008.73-18.62c1.25-3.42 2.86-6.7 3.82-10.23a63.07 63.07 0 002.67-17.47c0-.3.14-.71-.18-.81s-.76.24-.91.61c-1.55 3.69-3.77 7-5.37 10.71-1.93 4.4-2.94 9.06-4.19 13.65a167.18 167.18 0 01-6.34 18.53c-.94 2.34-2 4.62-3.12 6.9a4 4 0 01-1.58 1.87 50.52 50.52 0 002.96-15.1c.08-1.34 1.13-2.34 1.83-3.44a37.67 37.67 0 004.42-9.44 2.41 2.41 0 00.19-1.33 1.07 1.07 0 00-.54-.86c-.43-.17-.66.19-.86.46-1.05 1.4-2.09 2.81-3.35 4.53a11.5 11.5 0 01.49-3.83c.51-3 1.2-5.94 1.78-8.92.12-.65.45-1.51-.38-1.89s-1.28.45-1.67 1a21 21 0 00-2.71 5.4 73.39 73.39 0 00-3.59 13.2 10.64 10.64 0 01-1.77 4 45.31 45.31 0 00-3.67 8.13 82.59 82.59 0 00-4.92 26.68c0 .25.06.56-.07.74a32.13 32.13 0 01-5.9 6.82c.41-1.06.89-2.1 1.22-3.18a122 122 0 005.17-34.94 115.71 115.71 0 012.24-20.68 1.64 1.64 0 00.1-.6c-.1-.45.35-1.11-.34-1.33s-.95.39-1.23.87a49.32 49.32 0 00-6 18.63c-1.31 9.73-1.07 19.55-1.6 29.33a55.23 55.23 0 01-3.84 16.28c-1.41-13.59-5.1-26.76-4-40.42.15-1.86.5-3.69.66-5.55.05-.6.31-1.26-.53-1.5s-1.14.35-1.43.86c-1.78 3.14-3.28 6.34-3.57 10-.51 6.66-.29 13.24 1.87 19.61 1.09 3.2 2.51 6.29 3.77 9.44a21 21 0 01.61 13.2c-.4 1.59-1.71 2.94-2.58 4.41a51.59 51.59 0 00-3.19 6.51c-.2.48-.67 1.24-.11 1.52a1.58 1.58 0 001.83-.63 20.5 20.5 0 001.55-2.6c.66-1.24 1.18-2.57 1.89-3.78a8 8 0 011.94-2c3.55-2.87 7.85-2.73 11.92-2.9 11.52-.49 19.81-6.47 26.8-14.93a55.4 55.4 0 004.07-5.44c.23-.36.55-.64.16-1s-.83-.17-1.16.17c-.84.88-1.69 1.75-2.47 2.67-3.87 4.61-8.87 7.43-14.48 9.37-5.08 1.75-10.36 2.9-15.21 5.27-2.14 1-4.22 2.22-6.33 3.31-.48.25-1.08.67-1.51.18s.26-.79.47-1.18c1-1.9 2.95-2.87 4.52-4.2a72.2 72.2 0 0112.43-8.14 51.92 51.92 0 0022.23-22.7 33.11 33.11 0 001.31-3.06 2.13 2.13 0 01.85-1 52.51 52.51 0 0012.94-13.85 16.13 16.13 0 001.29-3.23c.12-.33.4-.8-.13-1.05s-.72.16-1 .5a59.92 59.92 0 01-8 8.27c-1.18 1.12-2.41 2.19-3.91 3.46zm-8.2 9.92c-4.44 7-9 13.51-15.37 18.49-3.33 2.63-6.91 4.94-10.31 7.49-1.93 1.45-3.71 3.08-5.56 4.63a13.49 13.49 0 011.67-2.86c4.19-5.44 9-10.42 12.5-16.37a13.69 13.69 0 016-5.34 66.57 66.57 0 007.78-4.46 10.79 10.79 0 013.29-1.58zm-22.6 15.34a135.6 135.6 0 016.12-22 94.88 94.88 0 01-1 13c-.55 3.68-3.29 6.06-5.12 9zM139.89 49.85a32.57 32.57 0 00-2.72-8.38c-.27-.58-.54-1.46-1.36-1.24s-.5 1.07-.41 1.63a63.14 63.14 0 01.41 11.08 3.3 3.3 0 01-1.31 2.73 60.18 60.18 0 00-9 10 3.41 3.41 0 01-1.16 1.09c.46-2.25.95-4.49 1.37-6.74a149.77 149.77 0 002.78-22.64c.14-4 .71-8.06.51-12.11A70.48 70.48 0 00125.82 6c-.11-.32-.1-.8-.47-.8-.53 0-.72.51-.76 1-.36 4.43-1.54 8.72-2 13.15-.5 5.3 0 10.56.3 15.83a185.15 185.15 0 01-.29 21.72c-.18 2.79-.54 5.58-.91 8.35a4.38 4.38 0 01-1 2.52 55.86 55.86 0 00-2.17-16.94c-.38-1.44.38-2.86.74-4.25A41.61 41.61 0 00120.67 35a2.67 2.67 0 00-.25-1.47c-.21-.35-.45-.69-.87-.72s-.63.42-.75.78c-.62 1.84-1.23 3.68-2 5.93a12.81 12.81 0 01-.8-4.21c-.49-3.32-.79-6.68-1.2-10-.1-.73 0-1.75-1-1.87s-1.2.92-1.43 1.62a24.29 24.29 0 00-1 6.62 81.48 81.48 0 00.83 15.13 12 12 0 01-.49 4.79 49.59 49.59 0 00-1.07 9.85 91.58 91.58 0 004 29.82c.07.26.25.57.18.8a35.82 35.82 0 01-3.87 9.23c.07-1.26.21-2.52.19-3.77a135.1 135.1 0 00-6.6-38.62 128.34 128.34 0 01-4.78-22.58 1.7 1.7 0 00-.1-.66c-.26-.44 0-1.29-.82-1.29s-.86.74-1 1.34a54.4 54.4 0 00.06 21.72c2 10.72 5.62 21 8.43 31.48a61.33 61.33 0 011.67 18.55C101.81 93.62 93.37 81 89.81 66.23c-.49-2-.75-4.06-1.22-6.07-.15-.66-.11-1.44-1.08-1.41s-1.08.77-1.21 1.41C85.5 64.08 85 68 86 72c1.75 7.2 4.25 14.06 8.74 20 2.25 3 4.81 5.77 7.22 8.65a23.26 23.26 0 015.2 13.71c.12 1.81-.79 3.69-1.2 5.54a56.25 56.25 0 00-1.11 8c0 .58-.28 1.54.4 1.64a1.73 1.73 0 001.71-1.3 22.65 22.65 0 00.75-3.26c.26-1.55.35-3.12.69-4.65a8.69 8.69 0 011.34-2.78c2.75-4.25 7.34-5.59 11.56-7.18 12-4.49 18.67-13.66 23.12-25a63.73 63.73 0 002.41-7.14c.12-.46.36-.87-.19-1.15s-.94.1-1.17.58c-.58 1.21-1.18 2.42-1.68 3.67-2.49 6.19-6.79 10.89-12 14.87-4.74 3.6-9.91 6.63-14.22 10.8-1.89 1.83-3.67 3.79-5.52 5.68-.42.42-.92 1.07-1.53.7s0-.92.09-1.4c.44-2.36 2.12-4 3.31-6a79.54 79.54 0 0110.28-12.85 57.59 57.59 0 0015.6-31.59 34.91 34.91 0 00.32-3.68 2.48 2.48 0 01.55-1.36 58.09 58.09 0 008.87-19 17 17 0 00.24-3.85c0-.4.16-1-.5-1.07s-.7.42-.85.86a67.85 67.85 0 01-5.55 11.48c-.88 1.53-1.88 3.08-2.99 4.93zm-5.23 13.3c-2.24 8.95-4.86 17.35-9.81 24.79-2.61 3.92-5.59 7.59-8.29 11.45-1.54 2.19-2.86 4.53-4.27 6.8a14.9 14.9 0 01.78-3.6c2.54-7.17 5.87-14.08 7.52-21.55a15.24 15.24 0 014.48-7.71 73.94 73.94 0 006.66-7.33 11.63 11.63 0 012.93-2.85zm-18.52 24A147.8 147.8 0 01115 61.8a106.87 106.87 0 013.38 14c.73 4.13-1.33 7.58-2.24 11.31z"
                    />
                </svg>