<svg
                    className="h-full w-2/3"
                    xmlns="http://www.w3.org/2000/svg"
                    data-name="Capa 1"
                    viewBox="0 0 224.72 285.53"
                >
                    <path
                                fill="#EEEEE2"
                                d="M81.08 46.24c1.3-1.89 2.2-3.94 3.55-5.73C86.55 38 88.48 35.43 90.5 33a34.87 34.87 0 005.73-10c.16-.42.23-1 .88-.89s.51.74.45 1.17c-1.21 8.84-4.62 16.45-12.13 21.79C84.15 46 83 47 81.73 48a1.65 1.65 0 00-.66 1.52 17.47 17.47 0 001.49 6.65 98.11 98.11 0 016.63 21.63c.5 2.82.86 5.65 1.21 8.52.38-2.3 1.3-4.44 1.11-6.87a68.16 68.16 0 011.73-19.14c1.26-6 3.31-11.75 5.09-17.59a53.64 53.64 0 002.23-12.42c0-.47-.06-.95-.07-1.42 0-.28-.18-.72.27-.76s.46.4.53.68c.28 1.1.56 2.2.75 3.32a111.15 111.15 0 011.69 12.73c.49 8.21-1.19 16.06-4 23.72A93.71 93.71 0 0193.55 82c-1.71 3-2.21 6.36-2.59 9.71-.76 6.77-.42 13.62-1.26 20.41a17.24 17.24 0 002-3.62 52.69 52.69 0 013.53-6.5c1.18-1.75 1.23-3.71 1.25-5.64A41.31 41.31 0 01104 73.6a46.32 46.32 0 016.17-7.73c.18-.17.26-.59.6-.43s.18.51.13.83c-.54 3.48-2.12 6.62-3.26 9.91-1.93 5.59-4 11.15-6.29 16.59a3.79 3.79 0 00-.1.53c1.22-1.29 2.29-2.44 3.38-3.58A66.49 66.49 0 01120.9 77c3-1.66 5.76-3.8 8.63-5.72.33-.22.7-.71 1.12-.4s0 .79-.11 1.18c-1.24 5.76-4.56 10.33-8.67 14.3-2.88 2.8-6.49 4.65-10 6.53-3.81 2-7.63 4-11.32 6.27-2.47 1.51-4.75 3.23-5.83 6.08a4 4 0 00-.14.41c.25.22.4 0 .54-.08a35.21 35.21 0 0114.36-5.6c4-.72 8-1.4 12-2.08.36-.06.88-.34 1 .17s-.41.53-.72.67a44.65 44.65 0 00-5.25 3.1 41 41 0 01-10.42 4.82 29.36 29.36 0 01-5.59.83 36.49 36.49 0 00-6.48 1.14 2.35 2.35 0 00-1.76 1.53c-.62 1.61-1.18 3.28-1.91 4.79-2.35 4.91-1.93 10.24-2.73 15.38-.62 4-1.09 8-1.37 12.05a71.84 71.84 0 00.69 14.63 63.18 63.18 0 001.1 6.77c.53-.22.51-.7.66-1.08a49.67 49.67 0 015.43-10.95c1.18-1.67.91-3.68.89-5.58 0-3.08-.65-6.1-1-9.15-.47-4.65-.42-9.25 1.17-13.72a15.62 15.62 0 014.58-6.76c.43-.37 1-.75 1 .2-.19 5.2.93 10.44-.33 15.62a28.92 28.92 0 01-1.71 5.24c-1.68 3.62-3.23 7.24-2.71 11.42.26.09.33-.26.49-.43.42-.47.79-1 1.22-1.44a32.67 32.67 0 006.43-10.07c2.17-5.21 5.72-9.62 9.69-13.69a75.26 75.26 0 009.65-11.28c.2-.3.37-.61.54-.91s.24-.82.68-.65.24.65.15 1c-.21.84-.4 1.68-.6 2.51a44.84 44.84 0 01-6.9 15.89 32.15 32.15 0 01-10 9.06c-4.15 2.46-7.1 6.11-10 9.89 1.39-.11 2.79.13 4.12-.39a24.9 24.9 0 005.41-2.77 49.88 49.88 0 0117-7.24c2.48-.62 5-.91 7.5-1.47a22.33 22.33 0 002.95-1.26c-.09 1-.78 1.39-1.21 2-4.36 5.78-10.28 9.09-17.22 10.69a28.32 28.32 0 01-6.56.74c-3.39 0-6.76.37-10.13.57a5.48 5.48 0 00-4.37 2.57 33.08 33.08 0 00-5.3 14.34c-.42 3 .58 5.42 1.43 8a91 91 0 0019 33 42.58 42.58 0 004.46 4c.34.29.93.61.62 1.13s-.94.23-1.37 0a16.46 16.46 0 01-4-3c-6.71-6.53-11.62-14.33-15.77-22.65a86.19 86.19 0 01-7.12-21.91c-.56-2.85-1-5.72-1.32-8.62-.1-1-.92-1.51-1.42-2.22s-1-1.53-2.19-1.18a.89.89 0 01-.66-.21 2.21 2.21 0 00-2.43-.08c-3.57 1.38-7.06 3-10.7 4.16-6.58 2.16-13 1.46-19.32-1.07-2.33-.93-4.58-2.07-6.87-3.1-.41-.19-.79-.34-.8-.89s.5-.7.86-.84a39.87 39.87 0 017.63-1.85c8.45-1.41 16.74-.53 25 1.54 1.81.46 3.7.6 5.56.88.13 0 .29-.08.58-.17a9.87 9.87 0 00-3-1.83c-2.19-1-4.52-1.56-6.78-2.33a51.78 51.78 0 01-26.11-19.08 6 6 0 01-.39-.59c-.17-.28-.28-.62 0-.87s.65-.13 1 .09a49 49 0 008 4.48c1.56.73 3.11 1.5 4.72 2.11a45.41 45.41 0 0115.5 10.11c1.14 1.09 2.26 2.19 3.31 3.36 2.11 2.34 4.85 3.84 7.37 5.63.59.42 1.07.48 1-.56-.6-5.32 0-10.58.54-15.86.15-1.36-.53-2.82-.83-4.22A62.33 62.33 0 0081 119.46a6.44 6.44 0 00-3.45-3c-.66-.32-1.3.18-1.91.36-1.6.5-3.14 1.22-4.76 1.64a19.72 19.72 0 01-14.15-1.72 46.08 46.08 0 01-10.27-7.25c-.23-.21-.54-.44-.34-.78s.51-.07.74 0c3 1.35 6.3 1 9.5 1.19a83.9 83.9 0 0114.48 1.6 18.55 18.55 0 017.76 3.83c.24-.48-.09-.74-.24-1-.68-1.24-1.49-2.42-2.07-3.71a8.7 8.7 0 00-4.06-4.19C69 104.71 66.59 102 64 99.59 57.33 93.51 52.65 86 48.77 78c-1-2-2-4-2.91-6-.12-.24-.34-.44-.1-.77 1.2 1.13 2.38 2.25 3.57 3.36 4.82 4.48 10.12 8.4 14.93 12.88 4.28 4 8.16 8.29 10.36 13.84a20.87 20.87 0 011.2 4 12.26 12.26 0 001.68 4.48c1.3 2 2.44 4.2 3.84 6.22-.63-2.35-1.33-4.69-1.87-7.06a94.83 94.83 0 01-1.73-13.44 33.2 33.2 0 00-1.86-9.08A19.47 19.47 0 0074 82.64c-.18-.27-.59-.66-.22-.92s.6.24.79.49a48.2 48.2 0 016.81 12.3 39.2 39.2 0 012.75 14.71c-.07 3-.39 6-.61 8.93a8.82 8.82 0 00.52 4.16 30 30 0 011.44 5.1 2.48 2.48 0 001 1.72c.23-1.87.47-3.62.68-5.38.75-6.46 1.6-12.91 2-19.41.3-4.54.38-9.09.29-13.64a84.1 84.1 0 00-.79-9.4 87.56 87.56 0 00-3-13.77 2.55 2.55 0 00-1-1.3 27.54 27.54 0 00-12-5 17 17 0 00-6.81.4 55.11 55.11 0 01-12.3 1.1c-9.59-.19-16.9-5.2-23.7-11.26-.48-.43-1.34-1-1-1.71s1.26-.13 1.89 0c7.82 1.63 15.58 3.58 23.48 4.89 5.35.89 10.39 2.89 15.4 4.91a6.66 6.66 0 003.07.51c-.79-.51-1.43-.91-2-1.33-3.9-2.67-7.39-5.88-11.25-8.61a73.43 73.43 0 00-11-6.6c-.33-.15-.94-.22-.82-.67s.71-.32 1.13-.26c1.7.26 3.39.57 5.09.77a20.6 20.6 0 019.89 4.37 57.36 57.36 0 0110.21 10.14 13.76 13.76 0 006.13 4.61c1.51.54 2.94 1.29 4.4 1.94.34-.47 0-.8-.12-1.14C81.43 55 77.79 47 72 40.17a2.66 2.66 0 00-2.21-1.12 64 64 0 01-19.46-3.71c-3.06-1.11-6.1-2.29-9.09-3.58a22.56 22.56 0 00-5.11-1.7c-.24 0-.45-.13-.47-.59 5.27.25 10.54-.12 15.79.65a49.16 49.16 0 0115.18 4.63 21.41 21.41 0 00-4.59-4.58 52.44 52.44 0 00-7.67-3.58C49.06 24.4 43.74 22.16 39 18.86a45.87 45.87 0 01-8-7.4 18.22 18.22 0 00-4.79-4.13c-.31-.17-.7-.4-.58-.8s.6-.3.91-.28a40.48 40.48 0 017.93 1.64 51.08 51.08 0 0128.09 19.42c2.87 3.9 6.24 7.38 9.33 11.1a11.87 11.87 0 001.86 2.37c-1.28-5.78-2.17-11.51-3.61-17.15-1.25-4.85-2.28-9.77-3.82-14.55a33.06 33.06 0 00-2.17-5.31c-.16-.28-.31-.58 0-.85s.62 0 .81.19c1.64 1.82 3.71 3.17 5.3 5a19.77 19.77 0 014.5 12.29A67.47 67.47 0 0174 31.31a25.94 25.94 0 001.46 11c.91 2.82 3 4.93 4.07 7.6h.31c.1-1.17.26-2.35.3-3.52 0-1.5.64-2.91.72-4.39.11-2.31.21-4.62.15-6.93a89.38 89.38 0 012.19-20.24c.76-3.68 1.51-7.36 2.22-11a9.62 9.62 0 00.18-3c0-.35.09-.69.43-.74s.56.27.6.59c.75 6.62 2.51 13.15 1.4 19.9a60.41 60.41 0 01-3.34 12A87.93 87.93 0 0081.31 43a18.43 18.43 0 00-.23 3.24zM42.45 151.7a6.9 6.9 0 00.72.38c4.24 1.75 8.71 2.1 13.22 2.1 3.71 0 7.33-.87 11-1.25 2.71-.28 5.42-.42 8.13-.62a5.87 5.87 0 00.59-.05c.17 0 .44.07.47-.06-11.27-2.15-22.58-3.91-34.13-.5zm32.35-46.31a13.61 13.61 0 00-1-4c-2.19-5.47-6.09-9.68-10.31-13.56-3.85-3.53-8-6.77-12-10.14-.55-.46-1.09-.94-1.74-1.51a1.88 1.88 0 00.63 1.27c3.89 5.18 8.3 9.93 12.44 14.92 2.53 3.06 5.62 5.59 8.31 8.49 1.36 1.38 2.44 3.01 3.67 4.53zM60.16 28.1c-9.47-7-18.73-14.4-30-19.07A8.24 8.24 0 0032 11.22 50.11 50.11 0 0039.17 18a71 71 0 0013.65 7.08c2.43 1.08 4.89 2.03 7.34 3.02zm41.71 9.29a3 3 0 00-.24 1.46 56 56 0 01-1.21 11.9c-1.24 4.89-2.62 9.74-3.73 14.66-1 4.48-1.67 9-2.92 13.45 0 .08.06.19.13.4 6.97-13.2 10.66-26.91 7.97-41.87zm-1.07-1.47c-.74 2.92-1.36 5.84-2.24 8.69-2.57 8.3-5.2 16.58-5.86 25.32-.18 2.33-.24 4.67-.35 7a.71.71 0 00.45-.46c3.07-11.63 7.06-23.05 7.83-35.19.11-1.78.12-3.57.17-5.36zm-.39 59.85l.21.16c1.53-1.29 3-2.61 4.58-3.86 3.78-3 8.06-5.29 12.18-7.79A32.11 32.11 0 00128.71 73l-1.16.7c-2 1.25-3.91 2.62-6 3.75a65 65 0 00-19.93 16.64c-.4.57-.8 1.13-1.21 1.68zm-1.28 3.32c.23-.13.47-.25.69-.4A99.53 99.53 0 01111 92.37c6.06-3 11.51-6.73 15.37-12.48a21.77 21.77 0 002.77-6 2.91 2.91 0 00-.83.85 33.51 33.51 0 01-11.14 10.66A122.89 122.89 0 00106 92.54a33.26 33.26 0 00-6.87 6.55zM67 60.78l.06-.31c-1.74-.19-3.48-.38-5.21-.55a112.15 112.15 0 01-12.11-1.36c-6.14-1.28-11.7-4-17.23-6.8-.35-.17-.66-.58-1.2-.35C41.3 61.79 53.56 63.47 67 60.78zm-.4-1.38a48.69 48.69 0 00-10.17-3.54c-4.58-.94-9.19-1.75-13.75-2.82-3.28-.77-6.56-1.57-9.84-2.36l-.22.36a1.73 1.73 0 01.46.12 62.41 62.41 0 0015.45 6.18C53 58.4 57.61 58.6 62.2 59zm7.4 47.17c-.26-.44-.43-.78-.65-1.1A45.12 45.12 0 0067.22 98c-4-4-7.77-8.22-11.39-12.56-2.06-2.44-4.14-4.91-6.11-7.44C55.46 89.43 63 99.39 74 106.57zm29.74 33.62c2-2.19 3.71-4.16 5.49-6.09a108 108 0 0010.22-12.36 27.37 27.37 0 003.55-7.84 4.39 4.39 0 00-.93 1q-4.19 5.37-8.82 10.32a52.29 52.29 0 00-7.37 9.77 18.88 18.88 0 00-2.19 5.2zM75 146.7c-4.44-4.62-9.2-8.8-15.11-11.46-4.17-1.89-8.36-3.75-12.34-6-.14-.08-.33-.27-.69.25C55.18 137 65.53 141.14 75 146.7zM30.27 8.12C41.7 13 51.49 20.45 61.45 27.66A51.2 51.2 0 0030.27 8.12zm101.6 129.72c-7.25.14-24.3 6.67-26.73 10.09a86.38 86.38 0 0026.73-10.09zM97.32 98.49A13.6 13.6 0 0099.19 94c1-3.3 1.53-6.7 2.64-10 1.64-4.8 4.15-9.2 6.19-13.82.15-.34.49-.66.3-1.2-7.08 8.64-11.69 18.08-11 29.51zM49.22 111a29 29 0 004.24 3.18c5 3.13 10.28 5 16.28 3.7a22.72 22.72 0 005.09-2c-14.06-.56-16.14-1.22-25.61-4.88zm25.35-50.72l.19-.27c-1.2-1.4-2.38-2.82-3.61-4.19A46.39 46.39 0 0059.61 46a19 19 0 00-8.19-2C60 48.21 66.84 54.89 74.57 60.28zm3.15 28.84c.21 1 .5 2 .62 2.95.52 4.33 1 8.67 1.48 13a73.16 73.16 0 002.55 10.42 39.72 39.72 0 00-4.65-26.37zM76.06 153a73.89 73.89 0 00-10.9 1 46.71 46.71 0 01-13.35.71c-.94-.12-1.87-.54-2.83-.09 9.28 4.23 18.23 2.21 27.08-1.62zm-24.19-42.28c7.62 3.3 15.69 3.7 23.79 3.94-7.54-3.66-15.77-3.25-23.79-3.94zm22.3 36.55c-8.38-4.67-17-9-24.71-14.73a44.24 44.24 0 0024.71 14.73zm25.83-27.9c-2.61 7-3.31 14.06-3.46 21.19 3.3-6.56 4.21-13.56 3.46-21.19zM43.25 31.24c4.56 2.84 22.75 7.39 25.87 6.37-8.75-2.48-17.23-4.76-25.87-6.37zm77.67 89.51c-3.83 6.56-9.53 11.58-14.15 17.47 6.99-3.99 11.9-9.67 14.15-17.47zM130 140c-7.09 3.32-14.24 6.47-21.92 8.23 8.17-.35 15.84-2.13 21.92-8.23zM82.21 33.49c2-8 3.71-16.15 3.42-24.52-1.88 8.03-3.51 16.18-3.42 24.52zm17 85.14c-4.06 3.42-6.07 16-3.56 22.29a68.36 68.36 0 013.52-22.29zm-3-12.24c6.58-2.9 13.94-3.3 20.47-6.41-7.22.89-14.31 2.13-20.47 6.41zm19.71-5.13c-.08 0-.13-.08-.15-.07-4.88 2-10.2 2.49-15.15 4.24-.77.28-1.55.52-2.33.75a8.5 8.5 0 00-2.05.8c6.93-.51 13.69-1.75 19.68-5.72zM86.44 8.61a91.14 91.14 0 01-3 23.76c3.1-7.66 4.76-15.49 3-23.76zM64.83 35.45a48.65 48.65 0 00-21.37-4.85c7.19 1.33 14.25 3.24 21.37 4.85zm43.75 35.79c-3 4.22-8.12 18.21-7.77 21 3.35-6.76 4.75-14.16 7.77-21zM67.92 10.36c1.49 6.24 3.33 12.37 4.73 18.64-.24-6.58-1.13-13-4.73-18.64zm5.49 14.32c.88-8.28-2.41-15.1-5.29-16.77a51.08 51.08 0 015.29 16.77zm10.74 19.78c4.43-3 7.91-6.78 9.61-12-2.99 4.2-6.24 8.15-9.61 12zm.56-2.29c3.76-4.07 7.86-7.89 10-13.18-3.13 4.55-7.07 8.48-10 13.18z"
                            />
                </svg>